<?xml version="1.0" encoding="utf-8"?>
<!-- Generator: Adobe Illustrator 25.0.0, SVG Export Plug-In . SVG Version: 6.00 Build 0)  -->
<svg version="1.1" id="图层_1" xmlns="http://www.w3.org/2000/svg" xmlns:xlink="http://www.w3.org/1999/xlink" x="0px" y="0px"
	 viewBox="0 0 460 111" style="enable-background:new 0 0 460 111;" xml:space="preserve">
<style type="text/css">
	.st0{fill:#231815;}
	.st1{font-family:'lianmengqiyilushuaizhengruiheiti-Regular';}
	.st2{font-size:63.92px;}
	.st3{fill:#053787;}
	.st4{fill:#5DBBE2;}
	.st5{fill:#004EA2;}
</style>
<text transform="matrix(1 0 0 1 165.42 78.4702)" class="st0 st1 st2">数智云屏</text>
<path class="st3" d="M113.9,41.2c-5.4-20-26-31.8-46-26.4c-11.2,3-20.4,11.1-24.8,21.9c15.2,1,29.5,8,39.7,19.3
	c20.2-8.5,43.4,1,51.9,21.2c0.8,1.8,1.4,3.7,1.9,5.7c7-14.7,0.7-32.2-14-39.2C119.8,42.5,116.9,41.6,113.9,41.2L113.9,41.2z"/>
<path class="st4" d="M80.7,61.8c-5,2.8-9.2,6.8-12.3,11.6c3.4,3.1,3.6,8.4,0.4,11.7c-1.5,1.6-3.6,2.6-5.8,2.6
	c-0.2,1.6-0.3,3.2-0.3,4.8c0,2.4,0.2,4.8,0.7,7.2h30c0.3-5.3-0.2-10.7-1.5-15.8C89.9,75.8,86,68.3,80.7,61.8z"/>
<path class="st5" d="M58.9,86.8c-4.1-2.1-5.6-7.1-3.5-11.2c1.4-2.7,4.3-4.5,7.4-4.5c0.6,0,1.3,0.1,1.9,0.2
	c3.3-5.3,7.9-9.7,13.2-12.9c-9.6-10.1-22.4-16.4-36.1-17.9l-0.2,0.5C25.5,43.1,14,57.8,16,73.9c1.8,14.7,14.3,25.8,29.1,25.8h14.1
	c-0.4-2.4-0.6-4.8-0.6-7.2C58.5,90.6,58.6,88.7,58.9,86.8z"/>
<path class="st5" d="M98.1,57.2c-4.3,0-8.5,0.8-12.5,2.3c8.8,11.5,13,25.8,11.9,40.2H110c9.1,0,17.7-4.2,23.2-11.4
	C131.1,70.6,116,57.2,98.1,57.2z"/>
</svg>
