<svg id="图层_1" data-name="图层 1" xmlns="http://www.w3.org/2000/svg" viewBox="0 0 188.17 115.39"><defs><style>.cls-1,.cls-2{fill:#004098;}.cls-2{stroke:#fff;stroke-miterlimit:10;stroke-width:1.42px;}</style></defs><path class="cls-1" d="M337,398c-15.9-47.94-90.48-40.49-96.2,9.87-37.87,12.75-29.27,73,12.34,72.35h24.64V463.8H253.15c-30.47-.65-24.62-47.52,4.93-40.28-10.11-49.45,64.66-57.84,64.95-7.4,34.06-11.76,46.51,41.23,12.34,47.68H310.7v16.45C382.72,490.91,392.37,409.4,337,398Z" transform="translate(-204.89 -365.82)"/><polygon class="cls-2" points="65.15 69.09 73.37 50.31 94.7 45.62 95.87 39.55 55.17 47.96 44.8 76.53 68.87 72.03 62.22 89.25 3.33 100.99 1.18 106.07 78.46 90.62 88.04 64.01 65.15 69.09"/><polygon class="cls-2" points="105.97 80.26 139.14 30.88 99.53 39.07 97.31 45.2 111.91 42.09 82.17 89.44 185.09 68.9 187.04 63.81 105.97 80.26"/></svg>